<svg aria-hidden="true" style="position: absolute; width: 0; height: 0; overflow: hidden;" version="1.1" xmlns="http://www.w3.org/2000/svg" xmlns:xlink="http://www.w3.org/1999/xlink">
<defs>
<symbol id="heart" viewBox="0 0 32 32">
<path fill="#ff7398" style="fill: var(--color1, #ff7398)" d="M16 5.152l-0.976-0.96c-1.573-1.49-3.702-2.406-6.046-2.406-4.861 0-8.8 3.939-8.8 8.8 0 2.339 0.914 4.466 2.402 6.042l-0.003-0.005 13.424 13.424 13.424-13.44c1.485-1.573 2.398-3.699 2.398-6.038 0-4.861-3.939-8.8-8.8-8.8-2.344 0-4.474 0.917-6.051 2.41l0.005-0.003-0.976 0.976z"></path>
</symbol>
<symbol id="clicked-heart" viewBox="0 0 32 32">
<path fill="#ff7398" style="fill: var(--color1, #ff7398)" d="M16 26.667c-0.26 0-0.521-0.076-0.748-0.229-0.3-0.201-7.344-4.973-9.528-7.161-2.441-2.441-2.724-5.036-2.724-6.776 0-3.952 3.215-7.167 7.167-7.167 2.403 0 4.531 1.188 5.833 3.008 1.303-1.82 3.431-3.008 5.833-3.008 3.952 0 7.167 3.215 7.167 7.167 0 1.74-0.283 4.335-2.724 6.776-2.188 2.188-9.231 6.96-9.528 7.161-0.227 0.153-0.488 0.229-0.748 0.229zM10.167 8c-2.481 0-4.5 2.019-4.5 4.5 0 1.457 0.231 3.179 1.943 4.891 1.616 1.616 6.511 5.033 8.391 6.328 1.88-1.295 6.775-4.712 8.391-6.328 1.712-1.712 1.943-3.433 1.943-4.891 0-2.481-2.019-4.5-4.5-4.5s-4.5 2.019-4.5 4.5c0 0.736-0.596 1.333-1.333 1.333s-1.333-0.597-1.333-1.333c0-2.481-2.019-4.5-4.5-4.5z"></path>
</symbol>
<symbol id="menu" viewBox="0 0 20 20">
<path d="M0 3h20v2h-20v-2zM0 9h20v2h-20v-2zM0 15h20v2h-20v-2z"></path>
</symbol>
<symbol id="envelope" viewBox="0 0 32 32">
<path d="M20.139 18.934l9.787-7.999-13.926-9.833-13.89 9.833 9.824 8.032 8.205-0.033zM12.36 19.936l-9.279 10.962h25.876l-9.363-10.9-7.234-0.062zM20.705 19.803l9.291 11.084v-18.952l-9.291 7.868zM2.004 11.935v18.952l9.291-11.084-9.291-7.868z"></path>
</symbol>
<symbol id="image" viewBox="0 0 24 24">
<path d="M11 8.501c0 1.381-1.119 2.5-2.5 2.5s-2.5-1.119-2.5-2.5c0-1.381 1.119-2.5 2.5-2.5s2.5 1.119 2.5 2.5z"></path>
<path d="M16 10c-2 0-3 3-4.5 3s-1.499-1-3.5-1c-2 0-3.001 4-3.001 4h14.001c0 0-1-6-3-6z"></path>
<path d="M20 3h-16c-1.103 0-2 0.897-2 2v12c0 1.103 0.897 2 2 2h16c1.103 0 2-0.897 2-2v-12c0-1.103-0.897-2-2-2zM20 17h-16v-12h16v12z"></path>
</symbol>
<symbol id="home" viewBox="0 0 32 32">
<path d="M32 18.451l-16-12.42-16 12.42v-5.064l16-12.42 16 12.42zM28 18v12h-8v-8h-8v8h-8v-12l12-9z"></path>
</symbol>
<symbol id="close" viewBox="0 0 20 20">
<path d="M10 8.586l-7.071-7.071-1.414 1.414 7.071 7.071-7.071 7.071 1.414 1.414 7.071-7.071 7.071 7.071 1.414-1.414-7.071-7.071 7.071-7.071-1.414-1.414-7.071 7.071z"></path>
</symbol>
</defs>
</svg>
