<svg aria-hidden="true" style="position: absolute; width: 0; height: 0; overflow: hidden;" version="1.1" xmlns="http://www.w3.org/2000/svg" xmlns:xlink="http://www.w3.org/1999/xlink">
<defs>
<symbol id="heart" viewBox="0 0 32 32">
<path fill="#ff7398" style="fill: var(--color1, #ff7398)" d="M16 5.152l-0.976-0.96c-1.573-1.49-3.702-2.406-6.046-2.406-4.861 0-8.8 3.939-8.8 8.8 0 2.339 0.914 4.466 2.402 6.042l-0.003-0.005 13.424 13.424 13.424-13.44c1.485-1.573 2.398-3.699 2.398-6.038 0-4.861-3.939-8.8-8.8-8.8-2.344 0-4.474 0.917-6.051 2.41l0.005-0.003-0.976 0.976z"></path>
</symbol>
<symbol id="clicked-heart" viewBox="0 0 32 32">
<path fill="#ff7398" style="fill: var(--color1, #ff7398)" d="M16 26.667c-0.26 0-0.521-0.076-0.748-0.229-0.3-0.201-7.344-4.973-9.528-7.161-2.441-2.441-2.724-5.036-2.724-6.776 0-3.952 3.215-7.167 7.167-7.167 2.403 0 4.531 1.188 5.833 3.008 1.303-1.82 3.431-3.008 5.833-3.008 3.952 0 7.167 3.215 7.167 7.167 0 1.74-0.283 4.335-2.724 6.776-2.188 2.188-9.231 6.96-9.528 7.161-0.227 0.153-0.488 0.229-0.748 0.229zM10.167 8c-2.481 0-4.5 2.019-4.5 4.5 0 1.457 0.231 3.179 1.943 4.891 1.616 1.616 6.511 5.033 8.391 6.328 1.88-1.295 6.775-4.712 8.391-6.328 1.712-1.712 1.943-3.433 1.943-4.891 0-2.481-2.019-4.5-4.5-4.5s-4.5 2.019-4.5 4.5c0 0.736-0.596 1.333-1.333 1.333s-1.333-0.597-1.333-1.333c0-2.481-2.019-4.5-4.5-4.5z"></path>
</symbol>
<symbol id="menu" viewBox="0 0 20 20">
<path d="M0 3h20v2h-20v-2zM0 9h20v2h-20v-2zM0 15h20v2h-20v-2z"></path>
</symbol>
<symbol id="home" viewBox="0 0 32 32">
<path d="M32 18.451l-16-12.42-16 12.42v-5.064l16-12.42 16 12.42zM28 18v12h-8v-8h-8v8h-8v-12l12-9z"></path>
</symbol>
<symbol id="envelope" viewBox="0 0 32 32">
<path d="M20.139 18.934l9.787-7.999-13.926-9.833-13.89 9.833 9.824 8.032 8.205-0.033zM12.36 19.936l-9.279 10.962h25.876l-9.363-10.9-7.234-0.062zM20.705 19.803l9.291 11.084v-18.952l-9.291 7.868zM2.004 11.935v18.952l9.291-11.084-9.291-7.868z"></path>
</symbol>
<symbol id="image" viewBox="0 0 24 24">
<path d="M11 8.501c0 1.381-1.119 2.5-2.5 2.5s-2.5-1.119-2.5-2.5c0-1.381 1.119-2.5 2.5-2.5s2.5 1.119 2.5 2.5z"></path>
<path d="M16 10c-2 0-3 3-4.5 3s-1.499-1-3.5-1c-2 0-3.001 4-3.001 4h14.001c0 0-1-6-3-6z"></path>
<path d="M20 3h-16c-1.103 0-2 0.897-2 2v12c0 1.103 0.897 2 2 2h16c1.103 0 2-0.897 2-2v-12c0-1.103-0.897-2-2-2zM20 17h-16v-12h16v12z"></path>
</symbol>
<symbol id="game" viewBox="0 0 32 32">
<path d="M27 6h-16c-2.75 0-5 2.25-5 5v16c0 2.75 2.25 5 5 5h16c2.75 0 5-2.25 5-5v-16c0-2.75-2.25-5-5-5zM13 28c-1.657 0-3-1.343-3-3s1.343-3 3-3 3 1.343 3 3-1.343 3-3 3zM13 16c-1.657 0-3-1.343-3-3s1.343-3 3-3 3 1.343 3 3-1.343 3-3 3zM19 22c-1.657 0-3-1.343-3-3s1.343-3 3-3 3 1.343 3 3-1.343 3-3 3zM25 28c-1.657 0-3-1.343-3-3s1.343-3 3-3 3 1.343 3 3-1.343 3-3 3zM25 16c-1.657 0-3-1.343-3-3s1.343-3 3-3 3 1.343 3 3-1.343 3-3 3zM25.899 4c-0.467-2.275-2.491-4-4.899-4h-16c-2.75 0-5 2.25-5 5v16c0 2.408 1.725 4.432 4 4.899v-19.899c0-1.1 0.9-2 2-2h19.899z"></path>
</symbol>
<symbol id="close" viewBox="0 0 20 20">
<path d="M10 8.586l-7.071-7.071-1.414 1.414 7.071 7.071-7.071 7.071 1.414 1.414 7.071-7.071 7.071 7.071 1.414-1.414-7.071-7.071 7.071-7.071-1.414-1.414-7.071 7.071z"></path>
</symbol>
<symbol id="discord" viewBox="0 0 32 32">
<path d="M32 16c0 8.837-7.163 16-16 16s-16-7.163-16-16c0-8.837 7.163-16 16-16s16 7.163 16 16z"></path>
<path fill="#fff" style="fill: var(--color2, #fff)" d="M21.545 10.906c-0.941-0.444-2.033-0.795-3.177-0.998l-0.080-0.012c-0.003-0.001-0.006-0.001-0.009-0.001-0.019 0-0.035 0.010-0.043 0.025l-0 0c-0.125 0.219-0.261 0.493-0.383 0.774l-0.023 0.059c-0.55-0.088-1.183-0.138-1.829-0.138s-1.279 0.050-1.898 0.147l0.069-0.009c-0.144-0.336-0.282-0.61-0.434-0.874l0.022 0.041c-0.009-0.015-0.025-0.025-0.044-0.025-0.003 0-0.006 0-0.009 0.001l0-0c-1.223 0.215-2.315 0.566-3.336 1.044l0.081-0.034c-0.009 0.004-0.016 0.010-0.021 0.018l-0 0c-2.074 3.099-2.642 6.122-2.363 9.107 0.002 0.015 0.009 0.029 0.021 0.037l0 0c1.142 0.854 2.469 1.542 3.901 1.994l0.094 0.026c0.004 0.001 0.010 0.002 0.015 0.002 0.017 0 0.032-0.008 0.041-0.020l0-0c0.286-0.384 0.557-0.819 0.792-1.276l0.025-0.053c0.003-0.007 0.005-0.014 0.005-0.023 0-0.022-0.014-0.040-0.033-0.047l-0-0c-0.487-0.187-0.898-0.387-1.289-0.616l0.041 0.022c-0.015-0.009-0.025-0.025-0.025-0.044 0-0.017 0.008-0.031 0.020-0.041l0-0c0.084-0.063 0.168-0.128 0.248-0.194 0.008-0.007 0.019-0.011 0.031-0.011 0.007 0 0.014 0.002 0.021 0.004l-0-0c2.618 1.196 5.453 1.196 8.041 0 0.006-0.003 0.014-0.005 0.021-0.005 0.012 0 0.023 0.004 0.031 0.011l-0-0c0.080 0.066 0.164 0.132 0.25 0.195 0.013 0.009 0.021 0.024 0.021 0.041 0 0.019-0.010 0.035-0.025 0.044l-0 0c-0.353 0.21-0.765 0.41-1.194 0.575l-0.056 0.019c-0.019 0.007-0.033 0.026-0.033 0.048 0 0.009 0.002 0.017 0.006 0.024l-0-0c0.267 0.512 0.538 0.947 0.838 1.359l-0.021-0.031c0.009 0.013 0.024 0.021 0.041 0.021 0.005 0 0.011-0.001 0.015-0.002l-0 0c1.528-0.476 2.857-1.164 4.035-2.044l-0.035 0.025c0.012-0.009 0.020-0.022 0.021-0.037v-0c0.334-3.451-0.559-6.449-2.366-9.107-0.004-0.009-0.011-0.016-0.019-0.020l-0-0zM13.347 18.214c-0.788 0-1.438-0.724-1.438-1.613s0.637-1.613 1.438-1.613c0.807 0 1.451 0.73 1.438 1.613 0.001 0.889-0.637 1.613-1.438 1.613zM18.663 18.214c-0.788 0-1.438-0.724-1.438-1.613s0.637-1.613 1.438-1.613c0.807 0 1.451 0.73 1.438 1.613 0 0.889-0.63 1.613-1.438 1.613z"></path>
</symbol>
<symbol id="github" viewBox="0 0 32 32">
<path d="M16 0c8.837 0 16 7.344 16 16.405 0 7.246-4.579 13.394-10.933 15.565-0.811 0.162-1.099-0.35-1.099-0.787 0-0.541 0.019-2.307 0.019-4.502 0-1.53-0.512-2.528-1.086-3.037 3.563-0.406 7.307-1.794 7.307-8.094 0-1.792-0.621-3.254-1.648-4.403 0.166-0.414 0.715-2.083-0.157-4.342 0 0-1.341-0.44-4.395 1.682-1.278-0.363-2.648-0.546-4.008-0.552-1.36 0.006-2.728 0.189-4.005 0.552-3.058-2.122-4.402-1.682-4.402-1.682-0.869 2.259-0.32 3.928-0.155 4.342-1.022 1.149-1.648 2.611-1.648 4.403 0 6.285 3.736 7.693 7.29 8.107-0.458 0.41-0.872 1.133-1.016 2.194-0.912 0.419-3.229 1.144-4.656-1.363 0 0-0.846-1.576-2.453-1.691 0 0-1.56-0.021-0.109 0.997 0 0 1.048 0.504 1.776 2.4 0 0 0.939 2.928 5.39 1.936 0.008 1.371 0.022 2.664 0.022 3.054 0 0.434-0.294 0.941-1.093 0.789-6.358-2.168-10.942-8.318-10.942-15.566 0-9.061 7.165-16.405 16-16.405"></path>
</symbol>
<symbol id="create" viewBox="0 0 32 32">
<path d="M32 12h-12l4.485-4.485c-2.267-2.266-5.28-3.515-8.485-3.515s-6.219 1.248-8.485 3.515c-2.266 2.267-3.515 5.28-3.515 8.485s1.248 6.219 3.515 8.485c2.267 2.266 5.28 3.515 8.485 3.515s6.219-1.248 8.485-3.515c0.189-0.189 0.371-0.384 0.546-0.583l3.010 2.634c-2.933 3.349-7.239 5.464-12.041 5.464-8.837 0-16-7.163-16-16s7.163-16 16-16c4.418 0 8.418 1.791 11.313 4.687l4.687-4.687v12z"></path>
</symbol>
</defs>
</svg>
